<svg xmlns="http://www.w3.org/2000/svg" xmlns:xlink="http://www.w3.org/1999/xlink" width="500" zoomAndPan="magnify" viewBox="0 0 375 374.999991" height="500" preserveAspectRatio="xMidYMid meet" version="1.0"><defs><g/><clipPath id="bdc0203875"><path d="M 66.421875 113 L 157 113 L 157 261 L 66.421875 261 Z M 66.421875 113 " clip-rule="nonzero"/></clipPath><clipPath id="53de7ca1dc"><path d="M 144 163 L 211.839844 163 L 211.839844 216 L 144 216 Z M 144 163 " clip-rule="nonzero"/></clipPath></defs><path fill="#3d4e8b" d="M 88.554688 166.921875 C 88.527344 166.554688 88.527344 166.207031 88.578125 165.925781 C 88.65625 162.917969 88.523438 159.855469 89.144531 156.957031 C 90.621094 150.109375 93.585938 144.105469 100.117188 140.460938 C 110.433594 134.703125 126.558594 138.925781 128.859375 152.304688 C 129.34375 155.125 129.632812 158.082031 129.351562 160.902344 C 128.984375 164.640625 129.730469 167.667969 132.28125 170.515625 C 135.609375 174.238281 135.394531 179.574219 132.246094 183.371094 C 130.84375 185.0625 129.601562 186.882812 128.269531 188.632812 C 126.722656 190.664062 126.3125 192.933594 127.164062 195.296875 C 128.550781 199.132812 129.972656 202.972656 131.625 206.707031 C 132.664062 209.0625 132.523438 211.164062 131.058594 213.117188 C 128.824219 216.09375 125.804688 217.800781 122.015625 217.351562 C 115.070312 216.523438 110.527344 212.453125 108.203125 206.035156 C 105.054688 197.328125 107.671875 189.683594 113.011719 182.636719 C 119.746094 173.765625 121.234375 163.996094 117.222656 153.667969 C 114.992188 147.945312 110.007812 145.738281 104.074219 145.671875 C 98.417969 145.605469 94.871094 148.734375 92.78125 153.671875 C 91.902344 155.746094 91.3125 157.972656 90.824219 160.183594 C 90.335938 162.386719 90.019531 164.628906 89.671875 166.859375 L 89.1875 170.042969 C 89.1875 170.042969 88.667969 168.324219 88.558594 166.941406 L 88.550781 166.921875 L 88.554688 166.921875 " fill-opacity="1" fill-rule="nonzero"/><g clip-path="url(#bdc0203875)"><path fill="#3d4e8b" d="M 67.160156 153.640625 C 69.328125 139.972656 75.703125 128.640625 86.988281 120.585938 C 98.160156 112.605469 110.984375 111.84375 123.882812 114.605469 C 140.863281 118.238281 150.566406 129.910156 155.625 145.851562 C 157.207031 150.84375 155.890625 155.621094 152.761719 159.820312 C 151.046875 162.121094 147.976562 161.847656 146.71875 159.257812 C 146.300781 158.402344 146.136719 157.371094 146.070312 156.40625 C 145.949219 154.589844 146.046875 152.761719 145.949219 150.941406 C 145.382812 140.160156 140.515625 131.796875 131.417969 126.082031 C 124.867188 121.960938 117.421875 121.351562 109.898438 121.597656 C 95.398438 122.066406 83.667969 130.085938 79.101562 143.832031 C 73.8125 159.757812 75.027344 175.4375 83.582031 190.144531 C 89.886719 200.976562 96 211.847656 99.824219 223.894531 C 101.558594 229.355469 103.886719 234.675781 106.390625 239.84375 C 110.675781 248.703125 117.785156 252.863281 127.792969 251.902344 C 135.3125 251.175781 140.320312 247.003906 141.351562 239.539062 C 141.789062 236.394531 141.113281 233.109375 141.085938 229.886719 C 141.078125 229.082031 141.105469 227.945312 141.339844 227.210938 C 141.339844 227.210938 141.347656 227.179688 141.371094 227.128906 C 141.410156 227.015625 141.453125 226.917969 141.503906 226.832031 C 141.886719 226.101562 142.996094 224.757812 145.316406 227.050781 C 145.613281 227.304688 145.890625 227.605469 146.136719 227.957031 C 146.4375 228.378906 146.644531 228.890625 146.8125 229.390625 C 149.980469 238.832031 146.28125 250.210938 138.03125 256.4375 C 130.167969 262.375 119.90625 262.394531 111.226562 256.625 C 105.445312 252.78125 102.195312 247.054688 99.566406 240.964844 C 96.835938 234.636719 94.492188 228.144531 92.03125 221.699219 C 87.9375 210.980469 81.480469 201.570312 75.523438 191.886719 C 69.878906 182.714844 66.324219 172.953125 66.429688 162.015625 C 66.664062 159.222656 66.722656 156.398438 67.160156 153.640625 " fill-opacity="1" fill-rule="nonzero"/></g><g clip-path="url(#53de7ca1dc)"><path fill="#3d4e8b" d="M 145.621094 190.726562 C 145.675781 190.703125 145.734375 190.695312 145.792969 190.695312 L 145.796875 190.695312 C 145.804688 190.695312 145.808594 190.695312 145.8125 190.699219 L 159.160156 191.621094 L 159.28125 191.628906 L 159.28125 191.621094 L 160.023438 191.671875 C 160.074219 191.691406 160.121094 191.714844 160.167969 191.738281 C 160.910156 192.085938 161.609375 192.585938 162.253906 193.296875 C 162.449219 192.722656 162.574219 192.386719 162.675781 192.042969 C 163.503906 189.3125 164.324219 186.582031 165.144531 183.847656 C 165.402344 183 165.839844 182.375 166.847656 182.464844 C 167.808594 182.554688 168.101562 183.257812 168.234375 184.070312 C 168.792969 187.554688 169.34375 191.035156 169.902344 194.515625 C 170.25 196.664062 170.613281 198.8125 170.964844 200.960938 C 171.144531 200.785156 171.175781 200.625 171.191406 200.460938 C 171.65625 194.597656 172.117188 188.734375 172.574219 182.867188 C 173.042969 176.835938 173.507812 170.800781 173.976562 164.769531 C 174.046875 163.878906 174.484375 163.320312 175.417969 163.269531 C 176.289062 163.222656 176.847656 163.777344 176.953125 164.78125 C 177.976562 174.300781 178.992188 183.828125 180.015625 193.351562 C 180.113281 194.269531 180.25 195.1875 180.371094 196.105469 C 180.808594 194.621094 181.035156 193.160156 181.257812 191.703125 C 181.972656 187.054688 182.6875 182.40625 183.390625 177.757812 C 183.527344 176.878906 183.96875 176.320312 184.871094 176.257812 C 185.660156 176.195312 186.257812 176.820312 186.421875 177.808594 C 187.238281 182.847656 188.050781 187.886719 188.867188 192.929688 C 188.902344 193.15625 188.988281 193.378906 189.050781 193.597656 C 190.101562 190.371094 190.953125 187.164062 191.800781 183.957031 C 191.996094 183.207031 192.300781 182.546875 193.207031 182.464844 C 194.15625 182.375 194.578125 182.976562 194.910156 183.742188 C 195.785156 185.777344 196.761719 187.769531 197.539062 189.84375 C 198.132812 191.417969 199.144531 191.992188 200.765625 191.953125 C 203.929688 191.890625 207.09375 191.925781 210.253906 191.945312 C 211.164062 191.949219 211.777344 192.523438 211.832031 193.3125 C 211.886719 194.132812 211.253906 194.796875 210.332031 194.890625 C 210.164062 194.910156 209.996094 194.902344 209.828125 194.902344 C 206.667969 194.902344 203.503906 194.917969 200.34375 194.902344 C 197.804688 194.890625 195.96875 193.800781 195 191.382812 C 194.648438 190.496094 194.230469 189.640625 193.730469 188.527344 C 193.53125 189.144531 193.410156 189.476562 193.320312 189.816406 C 192.308594 193.613281 191.292969 197.40625 190.300781 201.207031 C 190.066406 202.089844 189.734375 202.828125 188.671875 202.796875 C 187.597656 202.761719 187.3125 201.972656 187.171875 201.085938 C 186.878906 199.261719 186.59375 197.4375 186.296875 195.617188 C 185.882812 193.058594 185.457031 190.507812 185.035156 187.949219 C 184.574219 189.707031 184.292969 191.460938 184.027344 193.214844 C 183.242188 198.324219 182.457031 203.441406 181.683594 208.554688 C 181.542969 209.464844 181.140625 210.074219 180.140625 210.078125 C 179.296875 210.078125 178.769531 209.507812 178.65625 208.484375 C 177.894531 201.367188 177.148438 194.246094 176.386719 187.132812 C 176.203125 185.410156 175.992188 183.6875 175.757812 181.703125 C 175.628906 182.039062 175.59375 182.101562 175.589844 182.160156 C 174.765625 192.785156 173.945312 203.410156 173.132812 214.035156 C 173.046875 215.140625 172.582031 215.761719 171.75 215.832031 C 170.90625 215.910156 170.304688 215.367188 170.128906 214.277344 C 169.1875 208.578125 168.261719 202.875 167.335938 197.175781 C 166.992188 195.09375 166.652344 193.011719 166.3125 190.929688 C 165.871094 191.78125 165.511719 192.617188 165.351562 193.492188 C 164.773438 196.65625 162.484375 197.449219 160.039062 195.246094 L 159.898438 195.230469 L 145.796875 194.054688 C 145.765625 194.054688 145.734375 194.050781 145.703125 194.046875 C 145.675781 194.039062 145.648438 194.027344 145.621094 194.019531 C 145.207031 193.867188 144.898438 193.1875 144.898438 192.371094 C 144.898438 191.554688 145.207031 190.882812 145.621094 190.726562 " fill-opacity="1" fill-rule="nonzero"/></g><g fill="#3d4e8b" fill-opacity="1"><g transform="translate(155.127724, 249.101468)"><g><path d="M 5.84375 -15.765625 L 11.71875 -15.765625 L 11.71875 -11.875 L 5.84375 -11.875 L 5.84375 -3.890625 L 13.234375 -3.890625 L 13.234375 0 L 1.5625 0 L 1.5625 -27.25 L 13.234375 -27.25 L 13.234375 -23.359375 L 5.84375 -23.359375 Z M 5.84375 -15.765625 "/></g></g></g><g fill="#3d4e8b" fill-opacity="1"><g transform="translate(169.445254, 249.101468)"><g><path d="M 13.96875 -10.15625 L 13.96875 -6.53125 C 13.96875 -4.332031 13.429688 -2.640625 12.359375 -1.453125 C 11.285156 -0.273438 9.695312 0.3125 7.59375 0.3125 C 5.488281 0.3125 3.894531 -0.273438 2.8125 -1.453125 C 1.738281 -2.640625 1.203125 -4.332031 1.203125 -6.53125 L 1.203125 -20.703125 C 1.203125 -22.910156 1.738281 -24.601562 2.8125 -25.78125 C 3.894531 -26.96875 5.488281 -27.5625 7.59375 -27.5625 C 9.695312 -27.5625 11.285156 -26.96875 12.359375 -25.78125 C 13.429688 -24.601562 13.96875 -22.910156 13.96875 -20.703125 L 13.96875 -18.0625 L 9.921875 -18.0625 L 9.921875 -20.984375 C 9.921875 -21.960938 9.71875 -22.65625 9.3125 -23.0625 C 8.914062 -23.46875 8.378906 -23.671875 7.703125 -23.671875 C 7.023438 -23.671875 6.484375 -23.46875 6.078125 -23.0625 C 5.679688 -22.65625 5.484375 -21.960938 5.484375 -20.984375 L 5.484375 -6.265625 C 5.484375 -5.273438 5.679688 -4.585938 6.078125 -4.203125 C 6.484375 -3.816406 7.023438 -3.625 7.703125 -3.625 C 8.378906 -3.625 8.914062 -3.816406 9.3125 -4.203125 C 9.71875 -4.585938 9.921875 -5.273438 9.921875 -6.265625 L 9.921875 -10.15625 Z M 13.96875 -10.15625 "/></g></g></g><g fill="#3d4e8b" fill-opacity="1"><g transform="translate(184.463094, 249.101468)"><g><path d="M 5.84375 0 L 1.5625 0 L 1.5625 -27.25 L 5.84375 -27.25 L 5.84375 -15.5625 L 10.703125 -15.5625 L 10.703125 -27.25 L 15.0625 -27.25 L 15.0625 0 L 10.703125 0 L 10.703125 -11.671875 L 5.84375 -11.671875 Z M 5.84375 0 "/></g></g></g><g fill="#3d4e8b" fill-opacity="1"><g transform="translate(201.076104, 249.101468)"><g><path d="M 5.484375 -6.265625 C 5.484375 -5.273438 5.679688 -4.578125 6.078125 -4.171875 C 6.484375 -3.773438 7.023438 -3.578125 7.703125 -3.578125 C 8.378906 -3.578125 8.914062 -3.773438 9.3125 -4.171875 C 9.71875 -4.578125 9.921875 -5.273438 9.921875 -6.265625 L 9.921875 -20.984375 C 9.921875 -21.960938 9.71875 -22.65625 9.3125 -23.0625 C 8.914062 -23.46875 8.378906 -23.671875 7.703125 -23.671875 C 7.023438 -23.671875 6.484375 -23.46875 6.078125 -23.0625 C 5.679688 -22.65625 5.484375 -21.960938 5.484375 -20.984375 Z M 1.203125 -20.703125 C 1.203125 -22.910156 1.757812 -24.601562 2.875 -25.78125 C 3.988281 -26.96875 5.597656 -27.5625 7.703125 -27.5625 C 9.804688 -27.5625 11.414062 -26.96875 12.53125 -25.78125 C 13.644531 -24.601562 14.203125 -22.910156 14.203125 -20.703125 L 14.203125 -6.53125 C 14.203125 -4.332031 13.644531 -2.640625 12.53125 -1.453125 C 11.414062 -0.273438 9.804688 0.3125 7.703125 0.3125 C 5.597656 0.3125 3.988281 -0.273438 2.875 -1.453125 C 1.757812 -2.640625 1.203125 -4.332031 1.203125 -6.53125 Z M 1.203125 -20.703125 "/></g></g></g><g fill="#3d4e8b" fill-opacity="1"><g transform="translate(216.48301, 249.101468)"><g><path d="M 1.5625 -27.25 L 5.84375 -27.25 L 5.84375 -3.890625 L 12.890625 -3.890625 L 12.890625 0 L 1.5625 0 Z M 1.5625 -27.25 "/></g></g></g><g fill="#3d4e8b" fill-opacity="1"><g transform="translate(229.750064, 249.101468)"><g><path d="M 5.5625 -9.03125 L 0.15625 -27.25 L 4.625 -27.25 L 7.90625 -14.828125 L 11.171875 -27.25 L 15.25 -27.25 L 9.84375 -9.03125 L 9.84375 0 L 5.5625 0 Z M 5.5625 -9.03125 "/></g></g></g><g fill="#3d4e8b" fill-opacity="1"><g transform="translate(245.15697, 249.101468)"><g><path d="M 5.375 -19.734375 L 5.375 0 L 1.515625 0 L 1.515625 -27.25 L 6.890625 -27.25 L 11.28125 -10.9375 L 11.28125 -27.25 L 15.109375 -27.25 L 15.109375 0 L 10.703125 0 Z M 5.375 -19.734375 "/></g></g></g><g fill="#3d4e8b" fill-opacity="1"><g transform="translate(261.769979, 249.101468)"><g><path d="M 7.15625 -10.859375 L 5.84375 -8.375 L 5.84375 0 L 1.5625 0 L 1.5625 -27.25 L 5.84375 -27.25 L 5.84375 -15.375 L 11.515625 -27.25 L 15.71875 -27.25 L 9.765625 -15.109375 L 15.71875 0 L 11.328125 0 Z M 7.15625 -10.859375 "/></g></g></g><g fill="#3d4e8b" fill-opacity="1"><g transform="translate(158.9668, 258.959748)"><g><path d="M 3.59375 -2.609375 L 3.59375 -1.6875 C 3.59375 -1.113281 3.453125 -0.675781 3.171875 -0.375 C 2.898438 -0.0703125 2.492188 0.078125 1.953125 0.078125 C 1.410156 0.078125 1 -0.0703125 0.71875 -0.375 C 0.445312 -0.675781 0.3125 -1.113281 0.3125 -1.6875 L 0.3125 -5.3125 C 0.3125 -5.882812 0.445312 -6.320312 0.71875 -6.625 C 1 -6.925781 1.410156 -7.078125 1.953125 -7.078125 C 2.492188 -7.078125 2.898438 -6.925781 3.171875 -6.625 C 3.453125 -6.320312 3.59375 -5.882812 3.59375 -5.3125 L 3.59375 -4.640625 L 2.546875 -4.640625 L 2.546875 -5.390625 C 2.546875 -5.640625 2.492188 -5.816406 2.390625 -5.921875 C 2.285156 -6.023438 2.148438 -6.078125 1.984375 -6.078125 C 1.804688 -6.078125 1.664062 -6.023438 1.5625 -5.921875 C 1.457031 -5.816406 1.40625 -5.640625 1.40625 -5.390625 L 1.40625 -1.609375 C 1.40625 -1.359375 1.457031 -1.179688 1.5625 -1.078125 C 1.664062 -0.984375 1.804688 -0.9375 1.984375 -0.9375 C 2.148438 -0.9375 2.285156 -0.984375 2.390625 -1.078125 C 2.492188 -1.179688 2.546875 -1.359375 2.546875 -1.609375 L 2.546875 -2.609375 Z M 3.59375 -2.609375 "/></g></g></g><g fill="#3d4e8b" fill-opacity="1"><g transform="translate(162.825278, 258.959748)"><g><path d="M 1.40625 -1.609375 C 1.40625 -1.359375 1.457031 -1.179688 1.5625 -1.078125 C 1.664062 -0.972656 1.804688 -0.921875 1.984375 -0.921875 C 2.148438 -0.921875 2.285156 -0.972656 2.390625 -1.078125 C 2.492188 -1.179688 2.546875 -1.359375 2.546875 -1.609375 L 2.546875 -5.390625 C 2.546875 -5.640625 2.492188 -5.816406 2.390625 -5.921875 C 2.285156 -6.023438 2.148438 -6.078125 1.984375 -6.078125 C 1.804688 -6.078125 1.664062 -6.023438 1.5625 -5.921875 C 1.457031 -5.816406 1.40625 -5.640625 1.40625 -5.390625 Z M 0.3125 -5.3125 C 0.3125 -5.882812 0.453125 -6.320312 0.734375 -6.625 C 1.023438 -6.925781 1.441406 -7.078125 1.984375 -7.078125 C 2.523438 -7.078125 2.9375 -6.925781 3.21875 -6.625 C 3.507812 -6.320312 3.65625 -5.882812 3.65625 -5.3125 L 3.65625 -1.6875 C 3.65625 -1.113281 3.507812 -0.675781 3.21875 -0.375 C 2.9375 -0.0703125 2.523438 0.078125 1.984375 0.078125 C 1.441406 0.078125 1.023438 -0.0703125 0.734375 -0.375 C 0.453125 -0.675781 0.3125 -1.113281 0.3125 -1.6875 Z M 0.3125 -5.3125 "/></g></g></g><g fill="#3d4e8b" fill-opacity="1"><g transform="translate(166.78372, 258.959748)"><g><path d="M 1.375 -5.0625 L 1.375 0 L 0.390625 0 L 0.390625 -7 L 1.765625 -7 L 2.90625 -2.8125 L 2.90625 -7 L 3.875 -7 L 3.875 0 L 2.75 0 Z M 1.375 -5.0625 "/></g></g></g><g fill="#3d4e8b" fill-opacity="1"><g transform="translate(171.052034, 258.959748)"><g><path d="M 1.375 -5.0625 L 1.375 0 L 0.390625 0 L 0.390625 -7 L 1.765625 -7 L 2.90625 -2.8125 L 2.90625 -7 L 3.875 -7 L 3.875 0 L 2.75 0 Z M 1.375 -5.0625 "/></g></g></g><g fill="#3d4e8b" fill-opacity="1"><g transform="translate(175.320349, 258.959748)"><g><path d="M 1.5 -4.046875 L 3.015625 -4.046875 L 3.015625 -3.046875 L 1.5 -3.046875 L 1.5 -1 L 3.40625 -1 L 3.40625 0 L 0.40625 0 L 0.40625 -7 L 3.40625 -7 L 3.40625 -6 L 1.5 -6 Z M 1.5 -4.046875 "/></g></g></g><g fill="#3d4e8b" fill-opacity="1"><g transform="translate(178.998903, 258.959748)"><g><path d="M 3.59375 -2.609375 L 3.59375 -1.6875 C 3.59375 -1.113281 3.453125 -0.675781 3.171875 -0.375 C 2.898438 -0.0703125 2.492188 0.078125 1.953125 0.078125 C 1.410156 0.078125 1 -0.0703125 0.71875 -0.375 C 0.445312 -0.675781 0.3125 -1.113281 0.3125 -1.6875 L 0.3125 -5.3125 C 0.3125 -5.882812 0.445312 -6.320312 0.71875 -6.625 C 1 -6.925781 1.410156 -7.078125 1.953125 -7.078125 C 2.492188 -7.078125 2.898438 -6.925781 3.171875 -6.625 C 3.453125 -6.320312 3.59375 -5.882812 3.59375 -5.3125 L 3.59375 -4.640625 L 2.546875 -4.640625 L 2.546875 -5.390625 C 2.546875 -5.640625 2.492188 -5.816406 2.390625 -5.921875 C 2.285156 -6.023438 2.148438 -6.078125 1.984375 -6.078125 C 1.804688 -6.078125 1.664062 -6.023438 1.5625 -5.921875 C 1.457031 -5.816406 1.40625 -5.640625 1.40625 -5.390625 L 1.40625 -1.609375 C 1.40625 -1.359375 1.457031 -1.179688 1.5625 -1.078125 C 1.664062 -0.984375 1.804688 -0.9375 1.984375 -0.9375 C 2.148438 -0.9375 2.285156 -0.984375 2.390625 -1.078125 C 2.492188 -1.179688 2.546875 -1.359375 2.546875 -1.609375 L 2.546875 -2.609375 Z M 3.59375 -2.609375 "/></g></g></g><g fill="#3d4e8b" fill-opacity="1"><g transform="translate(182.857381, 258.959748)"><g><path d="M 0.09375 -7 L 3.5 -7 L 3.5 -6 L 2.34375 -6 L 2.34375 0 L 1.25 0 L 1.25 -6 L 0.09375 -6 Z M 0.09375 -7 "/></g></g></g><g fill="#3d4e8b" fill-opacity="1"><g transform="translate(186.455964, 258.959748)"><g><path d="M 0.40625 -7 L 1.5 -7 L 1.5 0 L 0.40625 0 Z M 0.40625 -7 "/></g></g></g><g fill="#3d4e8b" fill-opacity="1"><g transform="translate(188.355214, 258.959748)"><g><path d="M 1.375 -5.0625 L 1.375 0 L 0.390625 0 L 0.390625 -7 L 1.765625 -7 L 2.90625 -2.8125 L 2.90625 -7 L 3.875 -7 L 3.875 0 L 2.75 0 Z M 1.375 -5.0625 "/></g></g></g><g fill="#3d4e8b" fill-opacity="1"><g transform="translate(192.623528, 258.959748)"><g><path d="M 2.046875 -3.90625 L 3.59375 -3.90625 L 3.59375 -1.6875 C 3.59375 -1.113281 3.453125 -0.675781 3.171875 -0.375 C 2.898438 -0.0703125 2.492188 0.078125 1.953125 0.078125 C 1.410156 0.078125 1 -0.0703125 0.71875 -0.375 C 0.445312 -0.675781 0.3125 -1.113281 0.3125 -1.6875 L 0.3125 -5.3125 C 0.3125 -5.882812 0.445312 -6.320312 0.71875 -6.625 C 1 -6.925781 1.410156 -7.078125 1.953125 -7.078125 C 2.492188 -7.078125 2.898438 -6.925781 3.171875 -6.625 C 3.453125 -6.320312 3.59375 -5.882812 3.59375 -5.3125 L 3.59375 -4.640625 L 2.546875 -4.640625 L 2.546875 -5.390625 C 2.546875 -5.640625 2.492188 -5.816406 2.390625 -5.921875 C 2.285156 -6.023438 2.148438 -6.078125 1.984375 -6.078125 C 1.804688 -6.078125 1.664062 -6.023438 1.5625 -5.921875 C 1.457031 -5.816406 1.40625 -5.640625 1.40625 -5.390625 L 1.40625 -1.609375 C 1.40625 -1.359375 1.457031 -1.179688 1.5625 -1.078125 C 1.664062 -0.984375 1.804688 -0.9375 1.984375 -0.9375 C 2.148438 -0.9375 2.285156 -0.984375 2.390625 -1.078125 C 2.492188 -1.179688 2.546875 -1.359375 2.546875 -1.609375 L 2.546875 -2.90625 L 2.046875 -2.90625 Z M 2.046875 -3.90625 "/></g></g></g><g fill="#3d4e8b" fill-opacity="1"><g transform="translate(196.521992, 258.959748)"><g/></g></g><g fill="#3d4e8b" fill-opacity="1"><g transform="translate(198.071385, 258.959748)"><g><path d="M 2.0625 -1.296875 L 2.90625 -7 L 3.90625 -7 L 2.828125 0 L 1.1875 0 L 0.109375 -7 L 1.21875 -7 Z M 2.0625 -1.296875 "/></g></g></g><g fill="#3d4e8b" fill-opacity="1"><g transform="translate(202.089794, 258.959748)"><g><path d="M 1.40625 -1.609375 C 1.40625 -1.359375 1.457031 -1.179688 1.5625 -1.078125 C 1.664062 -0.972656 1.804688 -0.921875 1.984375 -0.921875 C 2.148438 -0.921875 2.285156 -0.972656 2.390625 -1.078125 C 2.492188 -1.179688 2.546875 -1.359375 2.546875 -1.609375 L 2.546875 -5.390625 C 2.546875 -5.640625 2.492188 -5.816406 2.390625 -5.921875 C 2.285156 -6.023438 2.148438 -6.078125 1.984375 -6.078125 C 1.804688 -6.078125 1.664062 -6.023438 1.5625 -5.921875 C 1.457031 -5.816406 1.40625 -5.640625 1.40625 -5.390625 Z M 0.3125 -5.3125 C 0.3125 -5.882812 0.453125 -6.320312 0.734375 -6.625 C 1.023438 -6.925781 1.441406 -7.078125 1.984375 -7.078125 C 2.523438 -7.078125 2.9375 -6.925781 3.21875 -6.625 C 3.507812 -6.320312 3.65625 -5.882812 3.65625 -5.3125 L 3.65625 -1.6875 C 3.65625 -1.113281 3.507812 -0.675781 3.21875 -0.375 C 2.9375 -0.0703125 2.523438 0.078125 1.984375 0.078125 C 1.441406 0.078125 1.023438 -0.0703125 0.734375 -0.375 C 0.453125 -0.675781 0.3125 -1.113281 0.3125 -1.6875 Z M 0.3125 -5.3125 "/></g></g></g><g fill="#3d4e8b" fill-opacity="1"><g transform="translate(206.048237, 258.959748)"><g><path d="M 0.40625 -7 L 1.5 -7 L 1.5 0 L 0.40625 0 Z M 0.40625 -7 "/></g></g></g><g fill="#3d4e8b" fill-opacity="1"><g transform="translate(207.947487, 258.959748)"><g><path d="M 3.59375 -2.609375 L 3.59375 -1.6875 C 3.59375 -1.113281 3.453125 -0.675781 3.171875 -0.375 C 2.898438 -0.0703125 2.492188 0.078125 1.953125 0.078125 C 1.410156 0.078125 1 -0.0703125 0.71875 -0.375 C 0.445312 -0.675781 0.3125 -1.113281 0.3125 -1.6875 L 0.3125 -5.3125 C 0.3125 -5.882812 0.445312 -6.320312 0.71875 -6.625 C 1 -6.925781 1.410156 -7.078125 1.953125 -7.078125 C 2.492188 -7.078125 2.898438 -6.925781 3.171875 -6.625 C 3.453125 -6.320312 3.59375 -5.882812 3.59375 -5.3125 L 3.59375 -4.640625 L 2.546875 -4.640625 L 2.546875 -5.390625 C 2.546875 -5.640625 2.492188 -5.816406 2.390625 -5.921875 C 2.285156 -6.023438 2.148438 -6.078125 1.984375 -6.078125 C 1.804688 -6.078125 1.664062 -6.023438 1.5625 -5.921875 C 1.457031 -5.816406 1.40625 -5.640625 1.40625 -5.390625 L 1.40625 -1.609375 C 1.40625 -1.359375 1.457031 -1.179688 1.5625 -1.078125 C 1.664062 -0.984375 1.804688 -0.9375 1.984375 -0.9375 C 2.148438 -0.9375 2.285156 -0.984375 2.390625 -1.078125 C 2.492188 -1.179688 2.546875 -1.359375 2.546875 -1.609375 L 2.546875 -2.609375 Z M 3.59375 -2.609375 "/></g></g></g><g fill="#3d4e8b" fill-opacity="1"><g transform="translate(211.805965, 258.959748)"><g><path d="M 1.5 -4.046875 L 3.015625 -4.046875 L 3.015625 -3.046875 L 1.5 -3.046875 L 1.5 -1 L 3.40625 -1 L 3.40625 0 L 0.40625 0 L 0.40625 -7 L 3.40625 -7 L 3.40625 -6 L 1.5 -6 Z M 1.5 -4.046875 "/></g></g></g><g fill="#3d4e8b" fill-opacity="1"><g transform="translate(215.484519, 258.959748)"><g><path d="M 0.265625 -5.3125 C 0.265625 -5.882812 0.394531 -6.320312 0.65625 -6.625 C 0.925781 -6.925781 1.332031 -7.078125 1.875 -7.078125 C 2.414062 -7.078125 2.820312 -6.925781 3.09375 -6.625 C 3.363281 -6.320312 3.5 -5.882812 3.5 -5.3125 L 3.5 -5.046875 L 2.453125 -5.046875 L 2.453125 -5.390625 C 2.453125 -5.640625 2.40625 -5.816406 2.3125 -5.921875 C 2.21875 -6.023438 2.082031 -6.078125 1.90625 -6.078125 C 1.738281 -6.078125 1.601562 -6.023438 1.5 -5.921875 C 1.40625 -5.816406 1.359375 -5.640625 1.359375 -5.390625 C 1.359375 -5.148438 1.410156 -4.9375 1.515625 -4.75 C 1.628906 -4.570312 1.765625 -4.398438 1.921875 -4.234375 C 2.078125 -4.066406 2.242188 -3.898438 2.421875 -3.734375 C 2.609375 -3.578125 2.78125 -3.398438 2.9375 -3.203125 C 3.101562 -3.015625 3.238281 -2.796875 3.34375 -2.546875 C 3.457031 -2.304688 3.515625 -2.019531 3.515625 -1.6875 C 3.515625 -1.113281 3.375 -0.675781 3.09375 -0.375 C 2.820312 -0.0703125 2.414062 0.078125 1.875 0.078125 C 1.332031 0.078125 0.921875 -0.0703125 0.640625 -0.375 C 0.367188 -0.675781 0.234375 -1.113281 0.234375 -1.6875 L 0.234375 -2.15625 L 1.265625 -2.15625 L 1.265625 -1.609375 C 1.265625 -1.359375 1.316406 -1.179688 1.421875 -1.078125 C 1.523438 -0.984375 1.664062 -0.9375 1.84375 -0.9375 C 2.007812 -0.9375 2.144531 -0.984375 2.25 -1.078125 C 2.351562 -1.179688 2.40625 -1.359375 2.40625 -1.609375 C 2.40625 -1.847656 2.351562 -2.054688 2.25 -2.234375 C 2.144531 -2.421875 2.007812 -2.597656 1.84375 -2.765625 C 1.6875 -2.929688 1.515625 -3.09375 1.328125 -3.25 C 1.148438 -3.414062 0.976562 -3.59375 0.8125 -3.78125 C 0.65625 -3.976562 0.523438 -4.195312 0.421875 -4.4375 C 0.316406 -4.6875 0.265625 -4.976562 0.265625 -5.3125 Z M 0.265625 -5.3125 "/></g></g></g><g fill="#3d4e8b" fill-opacity="1"><g transform="translate(219.22304, 258.959748)"><g><path d="M 0.40625 0 L 0.40625 -1.0625 L 1.453125 -1.0625 L 1.453125 -0.109375 L 0.984375 1 L 0.53125 1 L 0.8125 0 Z M 0.40625 0 "/></g></g></g><g fill="#3d4e8b" fill-opacity="1"><g transform="translate(221.082305, 258.959748)"><g/></g></g><g fill="#3d4e8b" fill-opacity="1"><g transform="translate(222.631697, 258.959748)"><g><path d="M 1.453125 -7 L 1.453125 -1.59375 C 1.453125 -1.34375 1.503906 -1.164062 1.609375 -1.0625 C 1.710938 -0.96875 1.847656 -0.921875 2.015625 -0.921875 C 2.191406 -0.921875 2.332031 -0.96875 2.4375 -1.0625 C 2.539062 -1.164062 2.59375 -1.34375 2.59375 -1.59375 L 2.59375 -7 L 3.625 -7 L 3.625 -1.671875 C 3.625 -1.097656 3.484375 -0.660156 3.203125 -0.359375 C 2.929688 -0.0546875 2.523438 0.09375 1.984375 0.09375 C 1.453125 0.09375 1.046875 -0.0546875 0.765625 -0.359375 C 0.484375 -0.660156 0.34375 -1.097656 0.34375 -1.671875 L 0.34375 -7 Z M 1.453125 -7 "/></g></g></g><g fill="#3d4e8b" fill-opacity="1"><g transform="translate(226.610133, 258.959748)"><g><path d="M 1.375 -5.0625 L 1.375 0 L 0.390625 0 L 0.390625 -7 L 1.765625 -7 L 2.90625 -2.8125 L 2.90625 -7 L 3.875 -7 L 3.875 0 L 2.75 0 Z M 1.375 -5.0625 "/></g></g></g><g fill="#3d4e8b" fill-opacity="1"><g transform="translate(230.878447, 258.959748)"><g><path d="M 0.40625 -7 L 1.5 -7 L 1.5 0 L 0.40625 0 Z M 0.40625 -7 "/></g></g></g><g fill="#3d4e8b" fill-opacity="1"><g transform="translate(232.777697, 258.959748)"><g><path d="M 0.09375 -7 L 3.5 -7 L 3.5 -6 L 2.34375 -6 L 2.34375 0 L 1.25 0 L 1.25 -6 L 0.09375 -6 Z M 0.09375 -7 "/></g></g></g><g fill="#3d4e8b" fill-opacity="1"><g transform="translate(236.37628, 258.959748)"><g><path d="M 0.40625 -7 L 1.5 -7 L 1.5 0 L 0.40625 0 Z M 0.40625 -7 "/></g></g></g><g fill="#3d4e8b" fill-opacity="1"><g transform="translate(238.27553, 258.959748)"><g><path d="M 1.375 -5.0625 L 1.375 0 L 0.390625 0 L 0.390625 -7 L 1.765625 -7 L 2.90625 -2.8125 L 2.90625 -7 L 3.875 -7 L 3.875 0 L 2.75 0 Z M 1.375 -5.0625 "/></g></g></g><g fill="#3d4e8b" fill-opacity="1"><g transform="translate(242.543844, 258.959748)"><g><path d="M 2.046875 -3.90625 L 3.59375 -3.90625 L 3.59375 -1.6875 C 3.59375 -1.113281 3.453125 -0.675781 3.171875 -0.375 C 2.898438 -0.0703125 2.492188 0.078125 1.953125 0.078125 C 1.410156 0.078125 1 -0.0703125 0.71875 -0.375 C 0.445312 -0.675781 0.3125 -1.113281 0.3125 -1.6875 L 0.3125 -5.3125 C 0.3125 -5.882812 0.445312 -6.320312 0.71875 -6.625 C 1 -6.925781 1.410156 -7.078125 1.953125 -7.078125 C 2.492188 -7.078125 2.898438 -6.925781 3.171875 -6.625 C 3.453125 -6.320312 3.59375 -5.882812 3.59375 -5.3125 L 3.59375 -4.640625 L 2.546875 -4.640625 L 2.546875 -5.390625 C 2.546875 -5.640625 2.492188 -5.816406 2.390625 -5.921875 C 2.285156 -6.023438 2.148438 -6.078125 1.984375 -6.078125 C 1.804688 -6.078125 1.664062 -6.023438 1.5625 -5.921875 C 1.457031 -5.816406 1.40625 -5.640625 1.40625 -5.390625 L 1.40625 -1.609375 C 1.40625 -1.359375 1.457031 -1.179688 1.5625 -1.078125 C 1.664062 -0.984375 1.804688 -0.9375 1.984375 -0.9375 C 2.148438 -0.9375 2.285156 -0.984375 2.390625 -1.078125 C 2.492188 -1.179688 2.546875 -1.359375 2.546875 -1.609375 L 2.546875 -2.90625 L 2.046875 -2.90625 Z M 2.046875 -3.90625 "/></g></g></g><g fill="#3d4e8b" fill-opacity="1"><g transform="translate(246.442308, 258.959748)"><g/></g></g><g fill="#3d4e8b" fill-opacity="1"><g transform="translate(247.9917, 258.959748)"><g><path d="M 1.5 0 L 0.40625 0 L 0.40625 -7 L 1.5 -7 L 1.5 -4 L 2.75 -4 L 2.75 -7 L 3.875 -7 L 3.875 0 L 2.75 0 L 2.75 -3 L 1.5 -3 Z M 1.5 0 "/></g></g></g><g fill="#3d4e8b" fill-opacity="1"><g transform="translate(252.260014, 258.959748)"><g><path d="M 1.5 -4.046875 L 3.015625 -4.046875 L 3.015625 -3.046875 L 1.5 -3.046875 L 1.5 -1 L 3.40625 -1 L 3.40625 0 L 0.40625 0 L 0.40625 -7 L 3.40625 -7 L 3.40625 -6 L 1.5 -6 Z M 1.5 -4.046875 "/></g></g></g><g fill="#3d4e8b" fill-opacity="1"><g transform="translate(255.938569, 258.959748)"><g><path d="M 3.953125 0 L 2.84375 0 L 2.65625 -1.265625 L 1.3125 -1.265625 L 1.125 0 L 0.109375 0 L 1.234375 -7 L 2.84375 -7 Z M 1.453125 -2.21875 L 2.515625 -2.21875 L 1.984375 -5.765625 Z M 1.453125 -2.21875 "/></g></g></g><g fill="#3d4e8b" fill-opacity="1"><g transform="translate(260.006966, 258.959748)"><g><path d="M 2.703125 0 C 2.691406 -0.0390625 2.675781 -0.0820312 2.65625 -0.125 C 2.644531 -0.164062 2.632812 -0.21875 2.625 -0.28125 C 2.613281 -0.34375 2.601562 -0.421875 2.59375 -0.515625 C 2.59375 -0.609375 2.59375 -0.722656 2.59375 -0.859375 L 2.59375 -1.953125 C 2.59375 -2.285156 2.535156 -2.515625 2.421875 -2.640625 C 2.316406 -2.773438 2.132812 -2.84375 1.875 -2.84375 L 1.5 -2.84375 L 1.5 0 L 0.40625 0 L 0.40625 -7 L 2.0625 -7 C 2.632812 -7 3.046875 -6.863281 3.296875 -6.59375 C 3.554688 -6.332031 3.6875 -5.929688 3.6875 -5.390625 L 3.6875 -4.84375 C 3.6875 -4.125 3.445312 -3.648438 2.96875 -3.421875 C 3.25 -3.304688 3.441406 -3.117188 3.546875 -2.859375 C 3.648438 -2.609375 3.703125 -2.300781 3.703125 -1.9375 L 3.703125 -0.84375 C 3.703125 -0.675781 3.707031 -0.523438 3.71875 -0.390625 C 3.726562 -0.265625 3.757812 -0.132812 3.8125 0 Z M 1.5 -6 L 1.5 -3.84375 L 1.9375 -3.84375 C 2.132812 -3.84375 2.289062 -3.894531 2.40625 -4 C 2.53125 -4.113281 2.59375 -4.3125 2.59375 -4.59375 L 2.59375 -5.28125 C 2.59375 -5.53125 2.546875 -5.710938 2.453125 -5.828125 C 2.359375 -5.941406 2.21875 -6 2.03125 -6 Z M 1.5 -6 "/></g></g></g><g fill="#3d4e8b" fill-opacity="1"><g transform="translate(264.025375, 258.959748)"><g><path d="M 0.09375 -7 L 3.5 -7 L 3.5 -6 L 2.34375 -6 L 2.34375 0 L 1.25 0 L 1.25 -6 L 0.09375 -6 Z M 0.09375 -7 "/></g></g></g><g fill="#3d4e8b" fill-opacity="1"><g transform="translate(267.623958, 258.959748)"><g><path d="M 0.265625 -5.3125 C 0.265625 -5.882812 0.394531 -6.320312 0.65625 -6.625 C 0.925781 -6.925781 1.332031 -7.078125 1.875 -7.078125 C 2.414062 -7.078125 2.820312 -6.925781 3.09375 -6.625 C 3.363281 -6.320312 3.5 -5.882812 3.5 -5.3125 L 3.5 -5.046875 L 2.453125 -5.046875 L 2.453125 -5.390625 C 2.453125 -5.640625 2.40625 -5.816406 2.3125 -5.921875 C 2.21875 -6.023438 2.082031 -6.078125 1.90625 -6.078125 C 1.738281 -6.078125 1.601562 -6.023438 1.5 -5.921875 C 1.40625 -5.816406 1.359375 -5.640625 1.359375 -5.390625 C 1.359375 -5.148438 1.410156 -4.9375 1.515625 -4.75 C 1.628906 -4.570312 1.765625 -4.398438 1.921875 -4.234375 C 2.078125 -4.066406 2.242188 -3.898438 2.421875 -3.734375 C 2.609375 -3.578125 2.78125 -3.398438 2.9375 -3.203125 C 3.101562 -3.015625 3.238281 -2.796875 3.34375 -2.546875 C 3.457031 -2.304688 3.515625 -2.019531 3.515625 -1.6875 C 3.515625 -1.113281 3.375 -0.675781 3.09375 -0.375 C 2.820312 -0.0703125 2.414062 0.078125 1.875 0.078125 C 1.332031 0.078125 0.921875 -0.0703125 0.640625 -0.375 C 0.367188 -0.675781 0.234375 -1.113281 0.234375 -1.6875 L 0.234375 -2.15625 L 1.265625 -2.15625 L 1.265625 -1.609375 C 1.265625 -1.359375 1.316406 -1.179688 1.421875 -1.078125 C 1.523438 -0.984375 1.664062 -0.9375 1.84375 -0.9375 C 2.007812 -0.9375 2.144531 -0.984375 2.25 -1.078125 C 2.351562 -1.179688 2.40625 -1.359375 2.40625 -1.609375 C 2.40625 -1.847656 2.351562 -2.054688 2.25 -2.234375 C 2.144531 -2.421875 2.007812 -2.597656 1.84375 -2.765625 C 1.6875 -2.929688 1.515625 -3.09375 1.328125 -3.25 C 1.148438 -3.414062 0.976562 -3.59375 0.8125 -3.78125 C 0.65625 -3.976562 0.523438 -4.195312 0.421875 -4.4375 C 0.316406 -4.6875 0.265625 -4.976562 0.265625 -5.3125 Z M 0.265625 -5.3125 "/></g></g></g></svg>